<svg xmlns="http://www.w3.org/2000/svg" xmlns:xlink="http://www.w3.org/1999/xlink" width="73" height="73" viewBox="0 0 73 73"><defs><style>.a{fill:#005faf;}.b{fill:#fff;}.c{filter:url(#e);}.d{filter:url(#c);}.e{filter:url(#a);}</style><filter id="a" x="0" y="0" width="73" height="73" filterUnits="userSpaceOnUse"><feOffset dy="3" input="SourceAlpha"/><feGaussianBlur stdDeviation="3" result="b"/><feFlood flood-opacity="0.161"/><feComposite operator="in" in2="b"/><feComposite in="SourceGraphic"/></filter><filter id="c" x="15" y="14" width="43.737" height="43.737" filterUnits="userSpaceOnUse"><feOffset dy="2" input="SourceAlpha"/><feGaussianBlur stdDeviation="3" result="d"/><feFlood flood-opacity="0.341"/><feComposite operator="in" in2="d"/><feComposite in="SourceGraphic"/></filter><filter id="e" x="28.572" y="27.572" width="30.165" height="30.165" filterUnits="userSpaceOnUse"><feOffset dy="2" input="SourceAlpha"/><feGaussianBlur stdDeviation="3" result="f"/><feFlood flood-opacity="0.341"/><feComposite operator="in" in2="f"/><feComposite in="SourceGraphic"/></filter></defs><g transform="translate(-261 -598.733)"><g class="e" transform="matrix(1, 0, 0, 1, 261, 598.73)"><rect class="a" width="55" height="55" rx="11" transform="translate(9 6)"/></g><g transform="translate(280.662 615.396)"><g transform="translate(4.338 4.338)"><g class="d" transform="matrix(1, 0, 0, 1, -24, -21)"><path class="b" d="M21.716,2.011H20.409V1.005a1.005,1.005,0,1,0-2.011,0V2.011H13.824V1.005a1.005,1.005,0,1,0-2.011,0V2.011H7.289V1.005a1.005,1.005,0,0,0-2.011,0V2.011H4.021A4.026,4.026,0,0,0,0,6.032V21.716a4.026,4.026,0,0,0,4.021,4.021h7.691a1.005,1.005,0,1,0,0-2.011H4.021a2.013,2.013,0,0,1-2.011-2.011V6.032A2.013,2.013,0,0,1,4.021,4.021H5.278V5.027a1.005,1.005,0,0,0,2.011,0V4.021h4.524V5.027a1.005,1.005,0,1,0,2.011,0V4.021H18.4V5.027a1.005,1.005,0,1,0,2.011,0V4.021h1.307a2.013,2.013,0,0,1,2.011,2.011v5.73a1.005,1.005,0,1,0,2.011,0V6.032A4.026,4.026,0,0,0,21.716,2.011Z" transform="translate(24 21)"/></g><g class="c" transform="matrix(1, 0, 0, 1, -24, -21)"><path class="b" d="M276.082,270a6.082,6.082,0,1,0,6.082,6.082A6.089,6.089,0,0,0,276.082,270Zm0,10.154a4.072,4.072,0,1,1,4.072-4.072A4.076,4.076,0,0,1,276.082,280.154Z" transform="translate(-232.43 -235.43)"/></g><path class="b" d="M373.463,332.061h-.452v-1.056a1.005,1.005,0,1,0-2.011,0v2.061a1,1,0,0,0,1.005,1.005h1.458a1.005,1.005,0,0,0,0-2.011Z" transform="translate(-352.351 -313.412)"/><circle class="b" cx="1" cy="1" r="1" transform="translate(9.868 13.868)"/><circle class="b" cx="1" cy="1" r="1" transform="translate(4.868 9.868)"/><circle class="b" cx="1" cy="1" r="1" transform="translate(9.868 9.868)"/><circle class="b" cx="1" cy="1" r="1" transform="translate(14.868 9.868)"/><circle class="b" cx="1" cy="1" r="1" transform="translate(19.868 9.868)"/><circle class="b" cx="1" cy="1" r="1" transform="translate(4.868 13.868)"/><circle class="b" cx="1" cy="1" r="1" transform="translate(4.868 17.868)"/><circle class="b" cx="1" cy="1" r="1" transform="translate(9.868 17.868)"/></g></g></g></svg>