<svg xmlns="http://www.w3.org/2000/svg" xmlns:xlink="http://www.w3.org/1999/xlink" width="73" height="73" viewBox="0 0 73 73"><defs><style>.a{fill:#005faf;}.b{fill:#fff;}.c{filter:url(#i);}.d{filter:url(#g);}.e{filter:url(#e);}.f{filter:url(#c);}.g{filter:url(#a);}</style><filter id="a" x="0" y="0" width="73" height="73" filterUnits="userSpaceOnUse"><feOffset dy="3" input="SourceAlpha"/><feGaussianBlur stdDeviation="3" result="b"/><feFlood flood-opacity="0.161"/><feComposite operator="in" in2="b"/><feComposite in="SourceGraphic"/></filter><filter id="c" x="20.884" y="33.014" width="35.194" height="22.973" filterUnits="userSpaceOnUse"><feOffset dy="5" input="SourceAlpha"/><feGaussianBlur stdDeviation="3" result="d"/><feFlood flood-opacity="0.439"/><feComposite operator="in" in2="d"/><feComposite in="SourceGraphic"/></filter><filter id="e" x="14.169" y="17" width="47.312" height="30.147" filterUnits="userSpaceOnUse"><feOffset dy="5" input="SourceAlpha"/><feGaussianBlur stdDeviation="3" result="f"/><feFlood flood-opacity="0.439"/><feComposite operator="in" in2="f"/><feComposite in="SourceGraphic"/></filter><filter id="g" x="9" y="24.371" width="29.193" height="34.791" filterUnits="userSpaceOnUse"><feOffset dy="5" input="SourceAlpha"/><feGaussianBlur stdDeviation="3" result="h"/><feFlood flood-opacity="0.439"/><feComposite operator="in" in2="h"/><feComposite in="SourceGraphic"/></filter><filter id="i" x="38.838" y="29.792" width="25.797" height="29.82" filterUnits="userSpaceOnUse"><feOffset dy="5" input="SourceAlpha"/><feGaussianBlur stdDeviation="3" result="j"/><feFlood flood-opacity="0.439"/><feComposite operator="in" in2="j"/><feComposite in="SourceGraphic"/></filter></defs><g transform="translate(-261 -470.02)"><g class="g" transform="matrix(1, 0, 0, 1, 261, 470.02)"><rect class="a" width="55" height="55" rx="11" transform="translate(9 6)"/></g><g transform="translate(279 482.571)"><g transform="translate(0 8.449)"><g class="f" transform="matrix(1, 0, 0, 1, -18, -21)"><path class="b" d="M15.42,31.992h5.249V33.2H15.42v1H31.927v-1h-6.12V31.992h6.806V29.227H15.42Z" transform="translate(14.46 7.79)"/></g><g class="e" transform="matrix(1, 0, 0, 1, -18, -21)"><path class="b" d="M8.851,10.593H33.875v10h2.144V8.449H6.707v6.7H8.851Z" transform="translate(16.46 12.55)"/></g><g class="d" transform="matrix(1, 0, 0, 1, -18, -21)"><path class="b" d="M0,34.8H11.193V18.013H0Zm5.833-.843a.539.539,0,1,1,.539-.539A.539.539,0,0,1,5.833,33.961ZM1.619,19.632H9.576V32.018H1.619Z" transform="translate(18 10.36)"/></g><g class="c" transform="matrix(1, 0, 0, 1, -18, -21)"><path class="b" d="M38.715,25.046v11.82h7.8V25.046Zm4.057.489a.171.171,0,1,1-.172.17A.171.171,0,0,1,42.772,25.535Zm-1.013.567h2.022v.163H41.759ZM42.7,36.356a.4.4,0,1,1,.4-.4A.4.4,0,0,1,42.7,36.356Zm2.681-1.392c-1.825.01-4.637.017-5.541.009V26.846h5.541Z" transform="translate(9.12 8.75)"/></g></g></g></g></svg>