<svg xmlns="http://www.w3.org/2000/svg" width="24.092" height="18.877" viewBox="0 0 24.092 18.877"><defs><style>.a{fill:#949494;}.b,.c{fill:none;}.c{stroke:#9c9c9c;stroke-width:2px;}</style></defs><g transform="translate(-1619.96 -511.297)"><g transform="translate(1619.96 511.297)"><g transform="translate(0 1.595)"><path class="a" d="M12.046,113.086c-4.6,0-8.777-2.518-11.857-6.609a.954.954,0,0,1,0-1.138c3.08-4.1,7.254-6.614,11.857-6.614s8.777,2.518,11.857,6.609a.954.954,0,0,1,0,1.138C20.823,110.568,16.649,113.086,12.046,113.086Zm.33-12.237a5.067,5.067,0,1,0,4.726,4.726A5.07,5.07,0,0,0,12.376,100.849Zm-.153,2.336a2.728,2.728,0,1,0,2.548,2.548A2.724,2.724,0,0,0,12.223,103.185Z" transform="translate(0 -98.725)"/></g><line class="b" x2="20.732" y2="18.34" transform="translate(2.025)"/></g><line class="c" x2="17" y2="17" transform="translate(1623.439 512.467)"/></g></svg>