<svg xmlns="http://www.w3.org/2000/svg" xmlns:xlink="http://www.w3.org/1999/xlink" width="55" height="58.899" viewBox="0 0 55 58.899"><defs><style>.a{fill:#096bc4;}.b{fill:#fff;}.c{filter:url(#a);}</style><filter id="a" x="8" y="4" width="38.895" height="54.899" filterUnits="userSpaceOnUse"><feOffset dy="4" input="SourceAlpha"/><feGaussianBlur stdDeviation="3" result="b"/><feFlood flood-opacity="0.471"/><feComposite operator="in" in2="b"/><feComposite in="SourceGraphic"/></filter></defs><g transform="translate(-267 -378.02)"><rect class="a" width="55" height="55" rx="11" transform="translate(267 378.02)"/><g transform="translate(284 387.02)"><g class="c" transform="matrix(1, 0, 0, 1, -17, -9)"><path class="b" d="M24.161,0H8.636A2.686,2.686,0,0,0,5.951,2.688V34.213A2.684,2.684,0,0,0,8.636,36.9H24.161a2.686,2.686,0,0,0,2.685-2.685V2.688A2.687,2.687,0,0,0,24.161,0ZM12.568,1.632h7.664c.194,0,.351.289.351.647s-.157.648-.351.648H12.568c-.195,0-.35-.29-.35-.648S12.373,1.632,12.568,1.632ZM16.4,34.246a1.714,1.714,0,1,1,1.712-1.716A1.717,1.717,0,0,1,16.4,34.246Zm8.435-5.875H7.964V4.535H24.835Z" transform="translate(11.05 9)"/></g></g></g></svg>