<svg xmlns="http://www.w3.org/2000/svg" width="17.528" height="18" viewBox="0 0 17.528 18"><defs><style>.a{fill:#fff;}</style></defs><g transform="translate(-6.71)"><g transform="translate(6.71)"><path class="a" d="M7.014,10.973,8.668,9.679A6.514,6.514,0,0,1,8.629,9a6.317,6.317,0,0,1,.039-.68L7.012,7.025a.811.811,0,0,1-.2-1.033L8.537,3.015a.8.8,0,0,1,1-.358l1.952.784a6.693,6.693,0,0,1,1.172-.68l.3-2.071A.8.8,0,0,1,13.749,0H17.2a.794.794,0,0,1,.794.684l.3,2.078a6.9,6.9,0,0,1,1.17.68l1.958-.786a.813.813,0,0,1,.988.352l1.723,2.981a.806.806,0,0,1-.2,1.039L22.278,8.321a5.934,5.934,0,0,1,0,1.358l1.656,1.294a.811.811,0,0,1,.2,1.033l-1.721,2.977a.8.8,0,0,1-1,.358l-1.952-.784a6.752,6.752,0,0,1-1.172.68l-.3,2.07A.8.8,0,0,1,17.2,18h-3.45a.8.8,0,0,1-.794-.684l-.3-2.077a6.932,6.932,0,0,1-1.17-.681l-1.957.786a.806.806,0,0,1-.294.056.792.792,0,0,1-.694-.407L6.813,12A.81.81,0,0,1,7.014,10.973ZM15.474,12a3,3,0,1,0-3-3A3,3,0,0,0,15.474,12Z" transform="translate(-6.71)"/></g></g></svg>