<svg xmlns="http://www.w3.org/2000/svg" width="688.809" height="510.83" viewBox="0 0 688.809 510.83"><defs><style>.a{fill:#095498;}.b{opacity:0.46;}.c{fill:#bfd9ff;}.ae,.ag,.ak,.al,.am,.d,.e,.g,.q,.r,.s{fill:none;}.d{stroke:#a9c2ff;}.d,.s{stroke-linecap:round;stroke-linejoin:round;stroke-width:3.446px;}.e{stroke:#84aee5;}.ae,.af,.ag,.ak,.al,.am,.e,.g,.q,.r{stroke-miterlimit:10;}.ae,.af,.e,.g,.r{stroke-width:1.149px;}.f{fill:#8dbcf8;}.g{stroke:#7094d8;}.h{fill:#a5c5ff;}.i{fill:#b7deff;}.j{fill:#023f61;}.k{fill:#bebecf;}.l{fill:#dee0e8;}.m{fill:#fb8e74;}.n{fill:#fb8877;}.o{fill:#713336;}.p{fill:#fba990;}.q{stroke:#022755;stroke-width:0.488px;}.r{stroke:#fff;}.s{stroke:#73a5ff;}.t{opacity:0.67;}.u{fill:#edf4ff;}.v{fill:#ebedfc;}.w{fill:#fff;}.x{fill:#73a5ff;}.y{fill:#024470;}.z{fill:#6d95b9;}.aa,.af{fill:#7e78c7;}.ab{fill:#ff8d68;}.ac{fill:#ff7759;}.ad{fill:#07054e;}.ae,.af{stroke:#65609e;}.ag{stroke:#e66657;}.ag,.ak,.al{stroke-width:1.026px;}.ah{fill:#2d2737;}.ai{fill:#51598d;}.aj{fill:#3e3343;}.ak{stroke:#2a2e59;}.al{stroke:#524b81;}.am{stroke:#07054e;stroke-width:1.368px;}</style></defs><g transform="translate(-86.325 -54.337)"><path class="a" d="M166.861,138.212s62.824-54.97,140.043-28.795S444.33,254.7,518.933,258.622,662.9,221.975,721.8,257.314s69.368,188.469-43.191,204.175S503.226,420.916,454.8,423.533,288.58,485.048,195.655,458.872,18.965,252.078,166.861,138.212Z" transform="translate(0 12.086)"/><g transform="translate(105.464 54.337)"><g transform="translate(125.085)"><g class="b" transform="translate(83.195)"><path class="c" d="M540.871,159.282H272.325a4.313,4.313,0,0,1-4.173-5.4l25.069-96.321a4.312,4.312,0,0,1,4.174-3.226H565.94a4.313,4.313,0,0,1,4.174,5.4l-25.069,96.32A4.315,4.315,0,0,1,540.871,159.282Z" transform="translate(-268.01 -54.337)"/><g transform="translate(33.958 20.605)"><line class="d" x2="93.445" transform="translate(7.188)"/><line class="d" x2="93.445" transform="translate(0 43.128)"/><line class="d" x2="93.445" transform="translate(39.295 26.835)"/><line class="d" x2="28.033" transform="translate(4.792 14.376)"/><line class="d" x2="28.033" transform="translate(0.958 26.835)"/><line class="d" x2="33.305" transform="translate(115.488)"/><path class="e" d="M410.518,123.292H360.786a.383.383,0,0,1-.372-.479l2.227-8.552a.382.382,0,0,1,.37-.287h49.732a.382.382,0,0,1,.371.479l-2.226,8.552A.383.383,0,0,1,410.518,123.292Z" transform="translate(-278.711 -59.931)"/><path class="e" d="M361.132,123.292H311.4a.382.382,0,0,1-.371-.479l2.226-8.552a.383.383,0,0,1,.371-.287h49.732a.383.383,0,0,1,.372.479l-2.227,8.552A.382.382,0,0,1,361.132,123.292Z" transform="translate(-291.142 -59.931)"/></g><path class="f" d="M483.772,122.148c-2.549-3.4-12.89-5.864-15.748-9.26-1.461-1.735-1.461-4.958-1.112-7.7a10.593,10.593,0,0,0,2.366-1.9,45.919,45.919,0,0,0,2.8-4.931,1.6,1.6,0,0,0,1.19.5c1.357-.041,6.526-7.077,5.193-8.708-.761-.931-1.993-.123-2.908.741,1.368-3.133,2.331-5.535,2.331-5.535h-.051c.129-.394.249-.792.349-1.2,2.052-8.226-2.954-14.894-11.18-14.894s-16.555,6.668-18.607,14.894c-.1.4-.179.8-.245,1.2h-.053s-.235,2.4-.429,5.535c-.484-.864-1.312-1.672-2.538-.741-2.147,1.631-.486,8.667.852,8.708a2.577,2.577,0,0,0,1.436-.5,30.256,30.256,0,0,0,.339,4.931,6.033,6.033,0,0,0,1.9,2.337c-1.023,2.64-2.582,5.621-4.785,7.265-4.55,3.4-16.125,5.864-20.367,9.26-3.815,3.054-7.22,11.974-7.866,13.736h68.149C485.021,134.122,486.065,125.2,483.772,122.148Z" transform="translate(-230.597 -50.581)"/></g><g transform="translate(31.441 69.484)"><path class="g" d="M503.545,220.536H235a4.314,4.314,0,0,1-4.174-5.4l25.071-96.32a4.311,4.311,0,0,1,4.173-3.226H528.614a4.312,4.312,0,0,1,4.173,5.4l-25.069,96.32A4.313,4.313,0,0,1,503.545,220.536Z" transform="translate(-225.652 -108.402)"/><path class="h" d="M499.525,214.793H230.979a4.313,4.313,0,0,1-4.173-5.4l25.069-96.32a4.313,4.313,0,0,1,4.173-3.227H524.594a4.313,4.313,0,0,1,4.173,5.4L503.7,211.566A4.312,4.312,0,0,1,499.525,214.793Z" transform="translate(-226.664 -109.848)"/><line class="g" x2="134.416" transform="translate(88.586 104.945)"/><line class="g" x2="113.571" transform="translate(51.209)"/><g transform="translate(186.868 19.408)"><path class="i" d="M440.265,196.514H379.886a3.8,3.8,0,0,1-3.778-5.032l15.233-61.1a6.874,6.874,0,0,1,6.286-5.032h60.38a3.8,3.8,0,0,1,3.776,5.032l-15.233,61.1A6.873,6.873,0,0,1,440.265,196.514Z" transform="translate(-375.953 -125.353)"/><g transform="translate(4.987 5.989)"><path class="j" d="M409.63,187.4l5.284-21.193-8.663-3.669s-16.145,5.911-17.519,7.336c-1.153,1.2-6.95,13.557-8.795,17.525Z" transform="translate(-379.937 -121.983)"/><path class="j" d="M433.514,187.4c.133-3.968.5-16.33-.055-17.525-.663-1.426-13.862-7.336-13.862-7.336L409.106,166.2,403.821,187.4Z" transform="translate(-373.925 -121.983)"/><path class="k" d="M410.285,186.084l8.278-18.34-17.779,1.019-1.739,17.321Z" transform="translate(-375.127 -120.672)"/><path class="l" d="M404.943,159.605l-3.87,2.445-2.543,6.113-.657,8.355,5.449-2.242,4.232,5.094,5.652-4.687,3.466,3.26,5.24-11.207-.922-6.928L418.8,158.79Z" transform="translate(-375.422 -122.926)"/><g transform="translate(25.713)"><path class="m" d="M405.477,146.96a2.463,2.463,0,0,0-3.965-.989c-2.667,1.965.453,9.556,2.385,7.272S405.477,146.96,405.477,146.96Z" transform="translate(-400.479 -126.323)"/><path class="m" d="M419.9,146.883s2.533-3.132,4.446-1.377-4.373,9.78-5.406,7.632S419.9,146.883,419.9,146.883Z" transform="translate(-395.906 -126.404)"/><g transform="translate(1.515 28.13)"><path class="n" d="M418.233,167.078l2.727-14.467-15.785,1.369-3.486,13.587s2.76,6.431,5.717,9.284C407.406,176.852,416.587,168.921,418.233,167.078Z" transform="translate(-401.689 -152.611)"/></g><path class="o" d="M430.371,144.778c-.587,1.759-2.038,2.2-2.145,3.226s-.765,3.665-1.765,4.691a8.166,8.166,0,0,1-1.521,1.319s-13.544,3.813-20.421-1.466a11.791,11.791,0,0,1,.021-4.4c.467-2.371-.683-2.786.652-3.959a4.4,4.4,0,0,0,1.771-3.519,5.577,5.577,0,0,1,1.507-4.252c1.372-1.321,2.6-.88,3.938-2.053,0,0,1.975-3.316,4.584-3.694s8.109-1.76,11.381,2.263,1.765,7.544,2.709,8.8S430.371,144.778,430.371,144.778Z" transform="translate(-399.511 -130.138)"/><path class="p" d="M404.728,147.423s-6.391,17.6,5.645,18.922c10.635.247,14.411-12.731,15.933-19.388s.582-13.624-7.931-13.395S405.664,143.48,404.728,147.423Z" transform="translate(-399.836 -129.277)"/><path class="o" d="M408.047,141.45a3.226,3.226,0,0,1,.058,2.834c-.73,1.423-2.71,1.97-3.007,3.848s-1.165,5.783-1.7,5.953-.155-3.813-.066-5.178,1.108-7.011,3.947-10.6,4.593-5.1,9.647-5.923,8.883,1.306,10.29,4.389-.844,10.938-.844,10.938.337-3.733-.914-4.609-2.284-1.523-2.077-2.035-4,1.344-8.205-.008-5.565-.737-6.265-.3A2.894,2.894,0,0,0,408.047,141.45Z" transform="translate(-399.814 -129.617)"/></g><path class="q" d="M398.724,166.442c-.1.407-5.874,14.162-5.874,14.162l5.071,2.547L396.5,186" transform="translate(-376.687 -121)"/><path class="q" d="M419,166.442c-.1.407-1.187,14.162-1.187,14.162l-6.341,2.547,0,2.853" transform="translate(-371.999 -121)"/></g></g><path class="r" d="M440.265,196.514H379.886a3.8,3.8,0,0,1-3.778-5.032l15.233-61.1a6.874,6.874,0,0,1,6.286-5.032h60.38a3.8,3.8,0,0,1,3.776,5.032l-15.233,61.1A6.873,6.873,0,0,1,440.265,196.514Z" transform="translate(-189.085 -105.945)"/><line class="s" x2="93.445" transform="translate(41.145 23.002)"/><line class="s" x2="93.445" transform="translate(33.957 66.13)"/><line class="s" x2="93.445" transform="translate(73.252 49.837)"/><line class="s" x2="28.033" transform="translate(38.749 37.378)"/><line class="s" x2="28.033" transform="translate(34.916 49.837)"/><line class="s" x2="33.305" transform="translate(149.445 23.002)"/><path class="g" d="M369.172,180.718H319.439a.384.384,0,0,1-.371-.479l2.226-8.553a.383.383,0,0,1,.37-.285H371.4a.383.383,0,0,1,.37.479l-2.226,8.552A.384.384,0,0,1,369.172,180.718Z" transform="translate(-203.407 -94.354)"/><path class="g" d="M319.786,180.718H270.053a.384.384,0,0,1-.371-.479l2.226-8.553a.385.385,0,0,1,.372-.285h49.732a.383.383,0,0,1,.371.479l-2.226,8.552A.384.384,0,0,1,319.786,180.718Z" transform="translate(-215.839 -94.354)"/></g><line class="g" x2="58.223" transform="translate(192.627 58.702)"/><g transform="translate(34.316 207.015)"><path class="c" d="M501.822,324.667H233.276a4.313,4.313,0,0,1-4.173-5.4l25.069-96.32a4.313,4.313,0,0,1,4.173-3.227H526.891a4.313,4.313,0,0,1,4.173,5.4l-25.069,96.321A4.312,4.312,0,0,1,501.822,324.667Z" transform="translate(-228.961 -219.722)"/><g transform="translate(33.957 20.606)"><line class="d" x2="93.445" transform="translate(7.188)"/><line class="d" x2="93.445" transform="translate(0 43.128)"/><line class="d" x2="93.445" transform="translate(39.295 26.835)"/><line class="d" x2="28.033" transform="translate(4.792 14.376)"/><line class="d" x2="28.033" transform="translate(0.958 26.835)"/><line class="d" x2="33.305" transform="translate(115.488)"/><path class="e" d="M371.469,288.677H321.736a.383.383,0,0,1-.371-.478l2.226-8.553a.383.383,0,0,1,.371-.287h49.733a.383.383,0,0,1,.37.479l-2.226,8.553A.383.383,0,0,1,371.469,288.677Z" transform="translate(-239.662 -225.316)"/><path class="e" d="M322.083,288.677H272.35a.383.383,0,0,1-.371-.478l2.226-8.553a.384.384,0,0,1,.372-.287h49.732a.383.383,0,0,1,.371.479l-2.226,8.553A.383.383,0,0,1,322.083,288.677Z" transform="translate(-252.093 -225.316)"/></g><path class="f" d="M444.723,287.534c-2.548-3.4-12.891-5.866-15.749-9.261-1.46-1.734-1.46-4.958-1.11-7.7a10.7,10.7,0,0,0,2.366-1.9,45.831,45.831,0,0,0,2.8-4.932,1.6,1.6,0,0,0,1.19.5c1.357-.04,6.526-7.077,5.193-8.707-.762-.933-1.993-.124-2.908.74,1.368-3.132,2.331-5.535,2.331-5.535h-.053c.13-.394.25-.792.35-1.2,2.05-8.225-2.954-14.893-11.18-14.893s-16.556,6.668-18.607,14.893c-.1.4-.179.8-.247,1.2h-.051s-.235,2.4-.429,5.535c-.484-.864-1.312-1.672-2.539-.74-2.147,1.63-.486,8.667.851,8.707a2.577,2.577,0,0,0,1.437-.5,30.286,30.286,0,0,0,.338,4.932,6.036,6.036,0,0,0,1.905,2.336c-1.024,2.64-2.582,5.621-4.785,7.265-4.551,3.4-16.125,5.866-20.367,9.261-3.815,3.054-7.22,11.973-7.866,13.735H445.74C445.972,299.507,447.016,290.588,444.723,287.534Z" transform="translate(-191.548 -215.966)"/></g><g class="t" transform="translate(6.522 335.442)"><path class="c" d="M479.617,427.267H211.072a4.312,4.312,0,0,1-4.174-5.4l25.069-96.32a4.314,4.314,0,0,1,4.174-3.227H504.686a4.313,4.313,0,0,1,4.174,5.4l-25.069,96.32A4.313,4.313,0,0,1,479.617,427.267Z" transform="translate(-206.756 -322.322)"/><g transform="translate(33.958 20.606)"><line class="d" x2="93.445" transform="translate(7.188)"/><line class="d" x2="93.445" transform="translate(0 43.128)"/><line class="d" x2="93.445" transform="translate(39.295 26.835)"/><line class="d" x2="28.033" transform="translate(4.792 14.376)"/><line class="d" x2="28.033" transform="translate(0.958 26.835)"/><line class="d" x2="33.305" transform="translate(115.488)"/><path class="e" d="M349.264,391.278H299.532a.383.383,0,0,1-.371-.479l2.226-8.552a.383.383,0,0,1,.37-.287h49.733a.383.383,0,0,1,.37.479l-2.227,8.552A.383.383,0,0,1,349.264,391.278Z" transform="translate(-217.457 -327.916)"/><path class="e" d="M299.878,391.278H250.146a.383.383,0,0,1-.371-.479L252,382.247a.383.383,0,0,1,.371-.287H302.1a.383.383,0,0,1,.371.479l-2.227,8.552A.383.383,0,0,1,299.878,391.278Z" transform="translate(-229.888 -327.916)"/></g><path class="f" d="M422.519,390.134c-2.55-3.4-12.891-5.866-15.749-9.26-1.46-1.735-1.46-4.958-1.112-7.7a10.63,10.63,0,0,0,2.366-1.9,45.612,45.612,0,0,0,2.8-4.932,1.6,1.6,0,0,0,1.189.5c1.357-.04,6.526-7.077,5.195-8.707-.762-.933-1.993-.124-2.909.74,1.368-3.132,2.331-5.534,2.331-5.534h-.051c.13-.4.249-.794.349-1.2,2.052-8.225-2.954-14.893-11.179-14.893s-16.556,6.668-18.608,14.893c-.1.4-.179.8-.245,1.2h-.053s-.235,2.4-.429,5.534c-.484-.864-1.312-1.672-2.538-.74-2.145,1.63-.484,8.667.852,8.707a2.577,2.577,0,0,0,1.437-.5,30.138,30.138,0,0,0,.338,4.932,6.041,6.041,0,0,0,1.9,2.337c-1.023,2.639-2.581,5.62-4.785,7.265-4.55,3.395-16.123,5.864-20.365,9.26-3.816,3.054-7.221,11.974-7.867,13.735h68.15C423.769,402.108,424.811,393.188,422.519,390.134Z" transform="translate(-169.343 -318.566)"/></g><line class="g" x2="47.92" transform="translate(225.692 440.867)"/><line class="g" x2="114.05" transform="translate(62.763 312.44)"/><line class="g" x2="27.794" transform="translate(202.929 312.44)"/><path class="g" d="M459.567,220.105H469.2a4.21,4.21,0,0,1,4.024,5.449l-4.073,13.239" transform="translate(-136.597 -12.61)"/><g transform="translate(0 28.752)"><g transform="translate(11.195)"><path class="c" d="M217.149,86.689h-4.914a1.687,1.687,0,0,1-1.676-2.233l1.224-4.914a3.052,3.052,0,0,1,2.791-2.234h4.914a1.688,1.688,0,0,1,1.677,2.234l-1.225,4.914A3.052,3.052,0,0,1,217.149,86.689Z" transform="translate(-210.49 -77.307)"/></g><g transform="translate(7.603 14.409)"><path class="u" d="M214.279,98.2h-4.914a1.687,1.687,0,0,1-1.676-2.233l1.224-4.915a3.052,3.052,0,0,1,2.791-2.233h4.914a1.687,1.687,0,0,1,1.677,2.233l-1.225,4.915A3.052,3.052,0,0,1,214.279,98.2Z" transform="translate(-207.62 -88.818)"/><path class="c" d="M226.772,98.2h-4.914a1.687,1.687,0,0,1-1.677-2.233l1.225-4.915a3.052,3.052,0,0,1,2.79-2.233h4.915a1.687,1.687,0,0,1,1.676,2.233l-1.225,4.915A3.051,3.051,0,0,1,226.772,98.2Z" transform="translate(-204.475 -88.818)"/><path class="u" d="M239.264,98.2H234.35a1.688,1.688,0,0,1-1.677-2.233l1.225-4.915a3.052,3.052,0,0,1,2.791-2.233H241.6a1.688,1.688,0,0,1,1.677,2.233l-1.225,4.915A3.052,3.052,0,0,1,239.264,98.2Z" transform="translate(-201.331 -88.818)"/></g><g transform="translate(0 29.151)"><path class="u" d="M211.343,109.979h-4.914a1.688,1.688,0,0,1-1.677-2.234l1.225-4.914a3.052,3.052,0,0,1,2.79-2.234h4.915a1.688,1.688,0,0,1,1.676,2.234l-1.225,4.914A3.05,3.05,0,0,1,211.343,109.979Z" transform="translate(-200.756 -100.596)"/><path class="u" d="M208.206,122.56h-4.914a1.687,1.687,0,0,1-1.677-2.233l1.225-4.914a3.052,3.052,0,0,1,2.79-2.234h4.915a1.688,1.688,0,0,1,1.676,2.234L211,120.327A3.051,3.051,0,0,1,208.206,122.56Z" transform="translate(-201.546 -97.429)"/><path class="u" d="M223.835,109.979h-4.914a1.688,1.688,0,0,1-1.677-2.234l1.225-4.914a3.052,3.052,0,0,1,2.791-2.234h4.914a1.688,1.688,0,0,1,1.677,2.234l-1.225,4.914A3.052,3.052,0,0,1,223.835,109.979Z" transform="translate(-197.612 -100.596)"/><path class="c" d="M218.362,131.93h-4.914a1.688,1.688,0,0,1-1.677-2.234L213,124.781a3.052,3.052,0,0,1,2.791-2.234H220.7a1.688,1.688,0,0,1,1.677,2.234l-1.225,4.914A3.052,3.052,0,0,1,218.362,131.93Z" transform="translate(-198.989 -95.071)"/></g></g><g transform="translate(60.686 6.762)"><g transform="translate(0 2.689)"><path class="v" d="M286.019,61.961v0l-.074,0c-.075-.005-.148-.015-.223-.019l0,.006c-.506-.031-1.016-.055-1.537-.055-14.573,0-29.32,11.682-33.2,26.191l-.174.693H250.8c-.018.074-.03.145-.048.218l-.11.444h.015c-3.2,14.705,6.237,26.41,21.344,25.8,13.774-.557,27.667-11.551,31.8-25.178C308.287,75.275,300.126,62.947,286.019,61.961Zm10.05,27.592c-2.908,9.688-12.838,17.508-22.61,17.818-10.508.333-17.063-7.821-14.9-18.075l.3-1.218h-.011c2.8-10.159,13.141-18.316,23.363-18.316.529,0,1.045.028,1.553.071C293.537,70.658,299.16,79.253,296.069,89.552Z" transform="translate(-250.026 -61.887)"/><path class="h" d="M284.585,66.366h0a2.968,2.968,0,0,0,2.043,3.82c7.967,2.108,12.219,9.984,9.443,19.231-2.908,9.688-12.838,17.508-22.61,17.818-9.583.3-15.884-6.451-15.275-15.421a2.9,2.9,0,0,0-3.069-3.178h0a5.3,5.3,0,0,0-5.032,4.6c-.866,12.8,8.187,22.417,21.919,21.86,13.774-.557,27.667-11.551,31.8-25.178,3.99-13.154-2.034-24.371-13.355-27.374C288.111,61.923,285.226,63.8,284.585,66.366Z" transform="translate(-250.028 -61.752)"/></g><g transform="translate(66.367)"><path class="w" d="M339.046,59.813v0l-.071,0-.278-.016c-.491-.029-.984-.051-1.488-.051-14.738,0-29.663,11.946-33.337,26.684s5.294,26.683,20.031,26.683c.5,0,1.005-.021,1.508-.05l.284-.016.08,0v0c14.031-.949,27.788-12.372,31.4-26.379.02-.078.044-.154.064-.232C360.759,72.31,352.678,60.765,339.046,59.813ZM327.192,105.18l-.074.006q-.466.03-.931.038h0c-.108,0-.214.009-.32.009-10.388,0-16.709-8.422-14.119-18.81s13.111-18.81,23.5-18.81c.106,0,.21.006.317.008q.464.009.916.039l.078.006c9.6.68,15.289,8.815,12.81,18.757-.02.078-.044.154-.064.232C346.729,96.5,337.057,104.512,327.192,105.18Z" transform="translate(-303.049 -59.739)"/><path class="c" d="M343.7,84.528a26.359,26.359,0,0,1-18.617,14.946,5.5,5.5,0,0,0-4.235,3.878h0c-.618,2.48,1.183,4.328,3.734,3.865,11.255-2.043,21.831-10.529,26.519-21.288,1.059-2.432-.225-4.686-2.7-4.686h0A5.445,5.445,0,0,0,343.7,84.528Z" transform="translate(-298.599 -54.326)"/></g></g><path class="u" d="M285.331,136.691H235.6a.383.383,0,0,1-.37-.479l2.226-8.552a.384.384,0,0,1,.37-.287h49.733a.384.384,0,0,1,.37.479L285.7,136.4A.383.383,0,0,1,285.331,136.691Z" transform="translate(-193.071 -35.953)"/><g transform="translate(278.382 94.623)"><ellipse class="x" cx="25.004" cy="19.499" rx="25.004" ry="19.499" transform="translate(0 33.102) rotate(-41.447)"/><path class="x" d="M477.774,175a8.256,8.256,0,0,1-7.55,6.043c-3.337,0-5.369-2.706-4.536-6.043a8.254,8.254,0,0,1,7.55-6.043C476.575,168.954,478.607,171.659,477.774,175Z" transform="translate(-413.486 -120.109)"/><path class="w" d="M446.256,167.727a2.093,2.093,0,0,1-1.721-.795l-5.707-7.6c-.8-1.06-.368-2.779.958-3.839s3.043-1.06,3.839,0l4.265,5.682,15.24-12.2c1.324-1.06,3.043-1.06,3.839,0s.367,2.779-.958,3.839l-17.637,14.118A3.45,3.45,0,0,1,446.256,167.727Z" transform="translate(-420.3 -125.339)"/></g></g><g transform="translate(481.343 69.959)"><path class="a" d="M94.163,0c52.005,0,94.163,3.54,94.163,7.907s-42.158,7.907-94.163,7.907S0,12.274,0,7.907,42.158,0,94.163,0Z" transform="translate(0 425.057)"/><g transform="translate(2.67)"><path class="y" d="M565.1,119.8s-2.4,4.792-3.834,15.335,2.4,71.4,2.4,71.4l41.212-4.312-18.688-79.548Z" transform="translate(-470.008 -107.817)"/><path class="z" d="M547.626,325.193,533.25,396.356l28.034.718s7.187-63.254,4.312-63.254S547.626,325.193,547.626,325.193Z" transform="translate(-476.978 -56.117)"/><g transform="translate(120.964 267.041)"><path class="aa" d="M599.788,449.53s-10.543,11.023-14.855,13.418c.959,1.916,16.292,1.916,22.043-.959s10.064-9.583,10.064-9.583l-.479,7.187h2.875s2.875-10.064,2.875-12.46-2.875-5.75-2.875-5.75Z" transform="translate(-584.933 -293.91)"/><path class="ab" d="M593.355,337.343,603.9,466.729l12.458-.959s14.377-94.881,8.626-127.467S593.355,337.343,593.355,337.343Z" transform="translate(-582.813 -323.567)"/><path class="ab" d="M603.851,438.132s-3.834,10.063-9.1,14.855,8.146,4.792,13.9,0,6.23-7.668,8.146-8.626-.479-7.189-.479-7.189Z" transform="translate(-582.766 -294.97)"/></g><g transform="translate(32.387 269.693)"><path class="aa" d="M531.072,447.106s-12.249,9.087-16.9,10.722c.621,2.05,15.737,4.635,21.889,2.77s11.535-7.751,11.535-7.751l-1.684,7,2.834.484s4.53-9.434,4.934-11.8-1.865-6.152-1.865-6.152Z" transform="translate(-514.168 -296.31)"/><path class="ab" d="M545.673,335.94,534.256,465.251l12.442,1.155s30.164-91.1,29.989-124.19S545.673,335.94,545.673,335.94Z" transform="translate(-509.112 -325.686)"/><path class="ab" d="M536.871,437.185s-5.475,9.273-11.478,13.108,7.222,6.1,13.7,2.342,7.433-6.508,9.484-7.129.738-7.166.738-7.166Z" transform="translate(-511.726 -297.619)"/></g><g transform="translate(0 66.115)"><path class="ac" d="M513.092,170.625l-24.774-4.879s-.375,3.378,1.878,4.128l2.252.751s5.63,13.512,8.258,15.014,18.4,8.008,18.4,8.008l4.123-15.891Z" transform="translate(-488.294 -162.368)"/><path class="ab" d="M527.429,191.34s-.239-1.677-3.554-8.4c-3.675-7.451-4.5-10.509-4.5-10.509s-11.636-4.5-13.512-6.757-3-2.627-3-2.627-2.252,4.128,1.127,7.131,6.38,5.256,6.38,5.256-.375,8.633.751,12.761a11,11,0,0,0,4.51,6.132Z" transform="translate(-484.814 -163.047)"/><path class="ab" d="M563.289,199.739s-16.772,26.836-17.251,24.439-21.563-39.294-21.563-39.294l-11.567,3.947s17.318,54.037,28.339,62.662c0,0,.959,1.438,4.313.959s29.231-27.315,29.231-27.315Z" transform="translate(-482.099 -157.55)"/></g><path class="aa" d="M571.742,171.293s-8.985,3.595-13.3,9.823-16.773,34.5-16.773,34.5a38.46,38.46,0,0,0,22.044,16.292L584.8,193.1Z" transform="translate(-474.858 -94.856)"/><path class="ad" d="M560.268,245.81s.72,11.5.72,15.813c0,0-17.251,83.382-17.971,102.79s13.657,58.942,13.657,58.942,61.817-1.438,81.944-5.75l2.157-41.691s2.875-72.6,0-93.445-15.094-31.627-15.094-31.627l-3.595-10.064Z" transform="translate(-474.526 -77.366)"/><path class="aa" d="M612.382,167.273s16.173,7.548,21.205,15.455S653.714,233.4,653.714,233.4s-16.892,6.11-31.627,6.11c0,0,1.437,13.658,2.875,17.97s-3.595,6.111-3.595,6.111-35.221,9.7-61.457,3.953c0,0-3.236-.719-3.236-2.157s.36-5.032.36-5.032-2.516-24.439-3.236-28.752-8.626-16.053-7.906-20.726,12.938-26.355,12.938-26.355,8.266-9.7,11.86-12.221,12.58-2.516,12.58-2.516Z" transform="translate(-473.807 -95.868)"/><path class="ab" d="M575.679,160.336c.013.562,2.064,12.761-4.693,21.394-6.756,8.821,19.893,8.445,26.087-.563,5.63-8.07,5.067-9.383,5.067-9.383s-4.5-14.639-3.191-24.211C598.575,138.94,575.3,144.2,575.679,160.336Z" transform="translate(-467.753 -101.864)"/><path class="ab" d="M577.279,116.818s-7.771,1.988-12.172,13.919S563.64,168.019,566.574,171s11.848,1.843,24.208-2.237c13.059-4.31,17.471-17.887,19.806-26.843C615.058,124.771,600.145,107.124,577.279,116.818Z" transform="translate(-469.524 -109.263)"/><path class="y" d="M562.383,131.317s7.187,17.251,34.5,18.209l6.349,30.489s11.63,5.586,16.173,8.087c0,0,5.271-55.348-7.187-68.766s-34.5-10.064-43.129-2.4S562.383,131.317,562.383,131.317Z" transform="translate(-469.691 -110.228)"/><path class="w" d="M607.252,168.429l-6.11-5.75s-5.391,15.455-24.44,16.533a13.141,13.141,0,0,1-1.078-9.7l-3.234,2.516s-6.829,9.7-6.11,12.579,9.823-2.157,9.823-2.157,10.782,6.47,15.094,6.829S606.533,169.508,607.252,168.429Z" transform="translate(-468.677 -97.025)"/><path class="ac" d="M590.7,141.95s2.881-4.753,5.763-3-1.834,12.506-5.763,12.756S588.863,144.7,590.7,141.95Z" transform="translate(-463.079 -103.096)"/><line class="ae" x2="11.022" y2="39.295" transform="translate(134.382 102.554)"/><path class="af" d="M590.2,193.976a25.989,25.989,0,0,0,10.782,12.58" transform="translate(-462.643 -89.146)"/><path class="ae" d="M600.246,188.679s1.438-10.064,12.939-10.782" transform="translate(-460.114 -93.194)"/><path class="af" d="M557.5,183.065s-11.74,19.289-11.62,23.84,7.667,17.492,7.667,17.492l9.344,24.44" transform="translate(-473.798 -91.893)"/><line class="ae" y1="14.376" x2="12.579" transform="translate(124.319 156.943)"/><g transform="translate(4.153 74.373)"><path class="ag" d="M506.353,173.865l-14.741-4.221a19.069,19.069,0,0,0,2.282,4.221c.959.959,11.262,4.552,11.262,4.552" transform="translate(-491.612 -169.644)"/><path class="ag" d="M493.435,173.016s1.437,4.313,2.157,5.032,9.823,3.355,9.823,3.355" transform="translate(-491.153 -168.795)"/><path class="ag" d="M505.111,170.145l4.5,3.5,3.41-.866" transform="translate(-488.214 -169.518)"/></g><path class="r" d="M560.336,255.783s19.767,6.11,38.455-1.8" transform="translate(-470.16 -74.041)"/><path class="r" d="M565.025,261.646s10.064,3.355,26.356-2.875" transform="translate(-468.98 -72.836)"/></g><rect class="w" width="43.847" height="58.223" transform="matrix(0.866, -0.5, 0.5, 0.866, 56.428, 205.589)"/><g transform="translate(100.393 139.213)"><g transform="translate(0.183)"><path class="ab" d="M596.279,274.48s-5.991,6.589-7.787,8.027-14.017,2.516-14.017,2.516-5.391,8.985-6.829,8.626-1.078-1.438-1.078-1.438-.359-16.172.718-17.97,18.689-6.828,18.689-6.828l2.155-2.516,8.147,9.583" transform="translate(-566.511 -210.507)"/><path class="ab" d="M638.893,221.445c.478,1.437,4.312,12.7,6.229,18.449s-41.21,35.941-47.919,41.212l-5.271,4.312-8.147-9.583,37.857-37.857-5.51-12.46Z" transform="translate(-562.163 -221.445)"/></g><g transform="translate(0 63.734)"><line class="ag" y1="10.063" x2="2.276" transform="translate(1.318 9.344)"/><line class="ag" y1="5.75" x2="2.636" transform="translate(0 4.552)"/><path class="ag" d="M567.324,272.362l-.958,19.408h3.115l5.032-8.626" transform="translate(-566.365 -272.362)"/></g></g></g><g transform="translate(0 65.651)"><ellipse class="a" cx="94.163" cy="7.907" rx="94.163" ry="7.907" transform="translate(0 429.366)"/><g transform="translate(24.927)"><g transform="translate(20.488 294.479)"><path class="ah" d="M147.1,436.472s2-4.281,9.418-3.139,8.276,2.569,9.133,6.279,3.425,7.706,5.137,8.562,7.991,5.137,13.127,5.993,5.708,4,4.566,5.422-20.547,2.569-24.828,2c0,0-14.555-.284-17.98-1.426S146.814,437.9,147.1,436.472Z" transform="translate(-136.26 -319.115)"/><path class="ad" d="M140.5,359.087s-2.172-11.819,10.31-15.785,14.843,1.8,18.621,12.58-3.247,102.865-3.247,102.865-14.371,2.453-18.059.278c0,0-10.948-59.945-10.186-76.4S140.5,359.087,140.5,359.087Z" transform="translate(-137.898 -342.045)"/><path class="ai" d="M144.847,433.069s16.267-1.427,21.4-2.283l-.285,7.42s-12.843,2.283-20.834,1.142Z" transform="translate(-136.148 -319.708)"/></g><path class="aa" d="M146.721,171.33s-10.273.571-16.551,23.973-10.274,51.939-7.991,59.359,26.826,27.4,35.958,27.4,9.7-6.849,7.991-12.557-19.407-21.119-19.407-21.119,14.27-45.66,13.7-57.647S153,171.33,146.721,171.33Z" transform="translate(-121.529 -90.538)"/><g transform="translate(152.132 30.366)"><path class="ab" d="M244.772,167.245l-1.7.173,3.819-7.56s9.707-.612,11.264,3.487L253.7,173.22Z" transform="translate(-243.068 -123.801)"/><g transform="translate(1.419)"><path class="ac" d="M248.792,150.427s-.378-7.727,2.371-8.825,5.828,1.04,5.828,1.04,4.45-.453,5.869,1.446a8.537,8.537,0,0,1,1.3,4.772,4.466,4.466,0,0,1,3.162,2.948c.652,2.386-.513,7-.513,7s-2.905,3.566-6.265,2.682S248.792,150.427,248.792,150.427Z" transform="translate(-243.05 -128.467)"/><path class="ac" d="M244.814,159.245s-1.03-10.113.059-11.449S257.1,131.045,257.1,131.045s2.312,2.626.981,5.623-6.575,12.085-6.575,12.085l-.026,7.768A17.056,17.056,0,0,1,244.814,159.245Z" transform="translate(-244.158 -131.045)"/><path class="ab" d="M245.682,164s-2.662-16.24-.846-18.469,10.721-.929,12.422-.285,6.405,6.7,7.057,9.09-3.783,11.013-6.449,12.919S247.225,167.116,245.682,164Z" transform="translate(-244.201 -127.713)"/></g></g><path class="l" d="M240.376,169.884l3.425-6.277s7.991-1.427,11.986,4.85c1.142,2.283.571,2.283.571,2.283l-2.568,5.137Z" transform="translate(-91.614 -92.518)"/><path class="ab" d="M182.877,114.306s8.444,2.16,13.227,15.126,1.595,40.514-1.595,43.756-12.875,2-26.306-2.431c-14.193-4.685-18.989-19.439-21.525-29.171C141.822,122.949,158.028,103.771,182.877,114.306Z" transform="translate(-115.415 -105.647)"/><path class="ab" d="M151.231,175.984l6.849-24.542s13.7-4,22.259,5.137l2.854,4v15.981A91.409,91.409,0,0,1,151.231,175.984Z" transform="translate(-114.053 -95.764)"/><path class="ad" d="M136.415,277.921a226.057,226.057,0,0,0,0,64.211c5.137,34.247,15.41,37.67,24.828,37.67s11.986-27.4,13.7-39.383,8.561-53.08-4.281-62.5S143.263,267.647,136.415,277.921Z" transform="translate(-118.357 -65.567)"/><path class="ad" d="M165.271,318.018s-10.274-27.4,7.706-39.383,31.677-10.274,35.958,9.418,5.137,87.327-.856,101.025S180.681,381.374,165.271,318.018Z" transform="translate(-111.255 -65.426)"/><path class="y" d="M200.026,116.616s4.051,5.267,1.62,11.344-11.344,8.508-11.344,8.508,2.836,4.052,0,9.723l-2.025,3.242s2.836,6.483,2.025,8.1-3.646,1.215-3.646,1.215-3.241-8.912-4.456-8.1-4.456,4.862-4.456,8.508,1.215,6.483.4,8.913-13.37,2.431-18.637,1.621-13.37-17.017-15.4-24.31c0,0-2.835-10.129,1.215-18.637,0,0-.81-7.293,6.078-14.585s28.766-4.862,32.412-2.027c0,0-.406-4.051,3.646-3.241S197.595,111.349,200.026,116.616Z" transform="translate(-116.087 -106.785)"/><path class="ac" d="M180.361,144.793s-1.215-5.267-5.672-2.836.81,14.991,4.456,14.181S181.172,146.819,180.361,144.793Z" transform="translate(-108.578 -98.094)"/><path class="l" d="M148.336,172.4s1.911-6.72,3.624-7.29,22.831-2.854,34.246,3.994c5.137,4,4.566,6.849,4.566,6.849S156.7,169.419,148.336,172.4Z" transform="translate(-114.782 -92.311)"/><path class="aa" d="M148.336,170.207s35.387-2.283,60.5,8.562c11.416,5.708,37.528,31.535,37.528,31.535L266.913,167.5s11.558-4.137,16.125,6.707c0,0-12.985,50.513-23.829,66.5-6.849,5.707-39.525-12.843-39.525-12.843s5.136,66.208,3.425,95.889c-2.283,5.707-46.8,8.561-54.794,7.99s-35.958-9.7-36.529-11.414,4-70.205,2.854-78.195-4.566-47.374-3.425-53.082S137.493,172.49,148.336,170.207Z" transform="translate(-119.149 -91.699)"/><g transform="translate(64.163 298.235)"><path class="aj" d="M175.485,437.84s2-4.281,9.417-3.139,8.276,2.568,9.133,6.279,3.425,7.706,5.137,8.562,7.991,5.137,13.128,5.993,5.707,3.994,4.565,5.422-20.547,2.567-24.828,2c0,0-14.555-.285-17.98-1.427S175.2,439.267,175.485,437.84Z" transform="translate(-172.79 -322.526)"/><path class="ad" d="M178.876,360.191s-.856-11.986,11.986-14.555,14.555,3.425,17.124,14.555-14.555,101.881-14.555,101.881-14.555.856-17.978-1.712c0,0-4.281-60.786-1.714-77.053S178.876,360.191,178.876,360.191Z" transform="translate(-172.757 -345.046)"/><path class="ai" d="M174.087,439.63s11.13,3.139,20.548,1.427l.856-6.564-21.69-1.427Z" transform="translate(-172.535 -322.889)"/></g><path class="ak" d="M161.947,303.452s11.986,38.527,20.975,57.362" transform="translate(-111.356 -57.281)"/><path class="ak" d="M181.44,355.818s7.277-4.281,14.555,0" transform="translate(-106.449 -44.579)"/><path class="ak" d="M180.414,359.359s5.993-3.425,16.267,3.852" transform="translate(-106.707 -43.411)"/><path class="ak" d="M144.505,351.689s4.709-4.281,15.411.428" transform="translate(-115.746 -45.587)"/><path class="ak" d="M147.241,354.976a12.875,12.875,0,0,1,13.271,1.712" transform="translate(-115.057 -44.593)"/><line class="ak" x1="2.568" y2="87.327" transform="translate(45.454 317.232)"/><path class="ak" d="M188.166,302.431s9.7,5.708,13.7-3.425" transform="translate(-104.756 -58.4)"/><path class="ak" d="M195.918,302.654s4.566,35.387,3.425,58.789" transform="translate(-102.805 -57.482)"/><line class="al" x2="4.566" y2="49.086" transform="translate(12.064 112.184)"/><path class="al" d="M193.752,210.089s33.818,24.4,49.657,19.692" transform="translate(-103.35 -80.782)"/><path class="al" d="M225.9,205.3a14.119,14.119,0,0,1,6.421,12.843" transform="translate(-95.258 -81.987)"/><path class="al" d="M224.531,202.624a10.305,10.305,0,0,1,11.558,5.137" transform="translate(-95.602 -82.735)"/><path class="al" d="M194.76,178.968s-17.98,9.418-5.993,31.249" transform="translate(-105.642 -88.616)"/><path class="ag" d="M172.378,156.226s3,7.706,13.055,6.421" transform="translate(-108.73 -94.34)"/><path class="ag" d="M249.781,144.175l3.353-3a5.16,5.16,0,0,1,3.6,1.492" transform="translate(-89.246 -98.128)"/><path class="ag" d="M252.973,144.531a55.154,55.154,0,0,1,4.78-2.783s4.352,1.07,4.994,3.353a5.788,5.788,0,0,1,.143,3.5" transform="translate(-88.443 -97.985)"/><path class="ag" d="M257.476,147.279c.214-.071,6.065.285,6.065.285a5.122,5.122,0,0,1,2.069,4.21,21.759,21.759,0,0,1-.989,5.528,7.257,7.257,0,0,1-5.646,2.891" transform="translate(-87.309 -96.595)"/><path class="ag" d="M261.423,152.065s.713,1.142-.214,3.211-2.05,7.488-6.091,10.022" transform="translate(-87.903 -95.388)"/><path class="am" d="M166.975,123.7c-8.348-4.067-19.05.856-19.05.856a11.092,11.092,0,0,1,7.277-7.492" transform="translate(-114.885 -104.197)"/><path class="am" d="M148.267,125.789s2.14-.214,4.923,4.067" transform="translate(-114.799 -102.002)"/><path class="am" d="M177.678,110.456s10.559,1.712,10.845,12.272" transform="translate(-107.396 -105.862)"/></g></g></g></g></svg>