<svg xmlns="http://www.w3.org/2000/svg" width="16.006" height="13.066" viewBox="0 0 16.006 13.066"><defs><style>.a{fill:#fff;}</style></defs><g transform="translate(0 -41.115)"><g transform="translate(0 41.115)"><path class="a" d="M6.533,53.2a.266.266,0,0,1-.021-.138c.007-.037-.017-.068-.071-.092s-.082-.043-.082-.056-.039-.024-.117-.031l-.117-.01H2.94a1.572,1.572,0,0,1-1.154-.48,1.573,1.573,0,0,1-.48-1.153V44.055a1.572,1.572,0,0,1,.48-1.153,1.573,1.573,0,0,1,1.154-.48H6.206a.308.308,0,0,0,.209-.066.339.339,0,0,0,.1-.2,1.718,1.718,0,0,0,.031-.24,2.54,2.54,0,0,0-.005-.271q-.01-.163-.01-.2a.331.331,0,0,0-.327-.327H2.94a2.832,2.832,0,0,0-2.077.863A2.832,2.832,0,0,0,0,44.055v7.186a2.831,2.831,0,0,0,.863,2.077,2.831,2.831,0,0,0,2.077.863H6.207a.31.31,0,0,0,.209-.066.339.339,0,0,0,.1-.2,1.721,1.721,0,0,0,.031-.24,2.537,2.537,0,0,0-.005-.27Q6.533,53.242,6.533,53.2Z" transform="translate(0 -41.115)"/><path class="a" d="M121.526,55.993l-5.553-5.553a.653.653,0,0,0-1.113.459v2.94h-4.573a.662.662,0,0,0-.653.653v3.92a.663.663,0,0,0,.653.653h4.573v2.94a.65.65,0,0,0,1.113.459l5.553-5.553a.641.641,0,0,0,0-.919Z" transform="translate(-105.713 -49.92)"/></g></g></svg>