<svg xmlns="http://www.w3.org/2000/svg" width="16.8" height="14" viewBox="0 0 16.8 14"><defs><style>.a{fill:#fff;}</style></defs><g transform="translate(0 -2)"><path class="a" d="M12.9,5.15a.7.7,0,0,1-.7-.7V3.4H9.4V4.45a.7.7,0,0,1-1.4,0V3.4A1.4,1.4,0,0,1,9.4,2h2.8a1.4,1.4,0,0,1,1.4,1.4V4.45A.7.7,0,0,1,12.9,5.15Z" transform="translate(-2.4)"/><path class="a" d="M8.9,14.252a1.442,1.442,0,0,1-.5.084,1.534,1.534,0,0,1-.539-.1L0,11.62v5.341a1.924,1.924,0,0,0,1.925,1.925h12.95A1.924,1.924,0,0,0,16.8,16.961V11.62Z" transform="translate(0 -2.886)"/><path class="a" d="M16.8,6.925v1.6L8.568,11.272a.518.518,0,0,1-.336,0L0,8.528v-1.6A1.924,1.924,0,0,1,1.925,5h12.95A1.924,1.924,0,0,1,16.8,6.925Z" transform="translate(0 -0.9)"/></g></svg>